<?xml version="1.0" standalone="no"?>
<!DOCTYPE svg PUBLIC "-//W3C//DTD SVG 20010904//EN"
 "http://www.w3.org/TR/2001/REC-SVG-20010904/DTD/svg10.dtd">
<svg version="1.0" xmlns="http://www.w3.org/2000/svg"
 width="1024.000000pt" height="1024.000000pt" viewBox="0 0 1024.000000 1024.000000"
 preserveAspectRatio="xMidYMid meet">
<metadata>
Created by potrace 1.14, written by Peter Selinger 2001-2017
</metadata>
<g transform="translate(0.000000,1024.000000) scale(0.100000,-0.100000)"
fill="#000000" stroke="none">
<path d="M5265 10067 c-38 -10 -83 -22 -100 -27 -16 -5 -70 -19 -120 -33 -49
-13 -173 -48 -275 -77 -102 -28 -192 -53 -200 -55 -68 -16 -464 -129 -498
-142 -62 -23 -145 -106 -174 -173 -24 -57 -31 -151 -16 -235 4 -22 18 -110 33
-195 14 -85 28 -166 30 -180 2 -14 7 -42 10 -64 17 -107 26 -137 50 -187 22
-42 90 -119 107 -119 4 0 10 -17 13 -37 4 -21 9 -45 11 -54 3 -9 -52 -94 -130
-202 l-133 -186 -56 43 c-70 54 -145 91 -222 109 -69 16 -240 15 -300 -1 -22
-6 -49 -13 -60 -15 -11 -2 -27 -7 -35 -10 -8 -3 -40 -13 -70 -23 -30 -9 -102
-39 -159 -65 -57 -27 -105 -49 -107 -49 -2 0 -28 -16 -58 -35 -30 -19 -58 -35
-62 -35 -7 0 -289 -187 -307 -204 -7 -6 -30 -24 -52 -40 -22 -17 -42 -33 -45
-36 -3 -3 -14 -13 -26 -21 -29 -19 -128 -105 -185 -159 -27 -25 -63 -59 -81
-76 -340 -321 -577 -701 -632 -1015 -17 -95 -13 -256 9 -339 9 -36 30 -94 47
-130 25 -55 29 -72 23 -120 -3 -30 -10 -98 -15 -150 -6 -52 -12 -113 -15 -135
-2 -22 -9 -89 -15 -149 -6 -60 -13 -125 -15 -145 -2 -20 -9 -85 -15 -146 -6
-60 -13 -126 -16 -145 -3 -19 -7 -64 -10 -100 -3 -36 -7 -76 -9 -90 -2 -14 -7
-56 -10 -95 -3 -38 -8 -86 -10 -105 -3 -19 -12 -102 -20 -185 -8 -82 -17 -170
-20 -195 -7 -72 -35 -331 -40 -375 -2 -22 -7 -67 -10 -100 -13 -128 -15 -153
-24 -235 -6 -47 -13 -114 -16 -150 -5 -60 -10 -104 -20 -200 -10 -89 -15 -139
-20 -190 -6 -59 -14 -134 -20 -190 -8 -69 -15 -147 -20 -235 -3 -49 -7 -117
-10 -150 -2 -33 -7 -109 -11 -170 -4 -60 -8 -128 -9 -150 -1 -22 -5 -94 -9
-160 -4 -66 -9 -145 -11 -175 -3 -30 -7 -98 -10 -150 -3 -52 -8 -131 -10 -175
-5 -83 -10 -155 -20 -335 -4 -58 -9 -127 -11 -155 -13 -150 -13 -296 1 -341
30 -101 117 -189 218 -219 34 -10 148 -15 439 -20 694 -10 976 -14 1308 -20
179 -3 480 -7 670 -10 190 -3 480 -7 645 -10 165 -3 444 -8 620 -10 176 -2
464 -7 640 -10 176 -2 473 -7 660 -10 187 -3 484 -8 660 -11 176 -3 424 -6
550 -7 l230 0 230 57 c127 32 235 59 240 61 6 1 30 7 54 14 32 9 112 11 310 6
365 -8 398 -8 439 6 101 33 192 125 220 223 11 39 9 150 -4 276 -7 69 -16 160
-19 202 -3 43 -8 86 -9 95 -2 10 -7 56 -11 103 -3 47 -8 99 -10 115 -1 17 -6
64 -9 105 -4 41 -9 86 -11 100 -2 14 -6 59 -10 100 -3 41 -8 91 -10 110 -2 19
-6 67 -10 105 -3 39 -7 79 -9 90 -2 11 -7 59 -10 107 -4 48 -9 98 -11 110 -2
13 -7 57 -10 98 -3 41 -8 89 -9 105 -2 17 -7 62 -10 100 -3 39 -8 93 -11 120
-3 28 -7 77 -10 110 -3 33 -7 78 -10 100 -2 22 -7 66 -10 98 -3 31 -7 82 -10
112 -7 73 -16 163 -20 200 -2 17 -6 64 -9 105 -4 41 -8 86 -10 100 -3 14 -7
61 -11 105 -3 44 -8 94 -10 110 -3 17 -7 62 -10 100 -2 39 -7 81 -9 95 -2 14
-7 65 -11 113 -3 48 -8 93 -10 100 -2 7 -6 56 -10 111 -3 54 -7 101 -9 105 -2
3 -7 44 -10 91 -4 47 -9 103 -11 125 -14 145 -28 294 -40 420 -3 39 -8 86 -10
105 -3 19 -7 71 -10 115 -4 44 -8 87 -10 95 -2 8 -7 53 -10 100 -4 47 -9 92
-10 101 -2 8 -6 55 -10 105 -4 49 -8 100 -10 114 -2 14 -7 57 -10 95 -10 110
-15 148 -21 180 -10 49 -51 120 -89 156 -19 18 -35 38 -35 44 1 5 39 64 85
130 251 359 255 366 255 468 0 65 -14 120 -42 173 -23 42 -124 134 -216 195
-42 29 -79 55 -82 58 -13 15 -158 109 -185 119 -86 34 -196 31 -277 -8 l-39
-19 7 21 c24 78 -17 209 -91 285 -27 28 -215 165 -273 198 -9 6 -19 13 -22 16
-3 3 -34 26 -70 50 -69 48 -118 73 -162 84 -15 4 -34 18 -44 33 -27 41 -65 73
-159 137 -50 33 -92 63 -95 66 -5 5 -136 96 -275 190 -90 61 -199 97 -274 92
-98 -7 -196 -66 -264 -157 -12 -16 -20 -12 -117 67 -21 17 -367 286 -415 322
-37 29 -40 36 -50 103 -6 40 -8 72 -4 72 3 0 21 28 39 62 51 94 51 150 0 388
-23 107 -44 206 -46 220 -36 181 -67 312 -81 340 -74 150 -233 215 -408 167z"/>
</g>
</svg>
